<mxfile host="app.diagrams.net" agent="Mozilla/5.0 (Windows NT 10.0; Win64; x64) AppleWebKit/537.36 (KHTML, like Gecko) Chrome/132.0.0.0 Safari/537.36" version="26.0.3">
  <diagram name="Page-1" id="c6DactVp1O4TpJ3BRM9y">
    <mxGraphModel dx="1528" dy="976" grid="1" gridSize="10" guides="1" tooltips="1" connect="1" arrows="1" fold="1" page="1" pageScale="1" pageWidth="850" pageHeight="1100" math="0" shadow="0">
      <root>
        <mxCell id="0" />
        <mxCell id="1" parent="0" />
        <mxCell id="Z-5io42Y-3vGJiled2K--111" value="" style="group" vertex="1" connectable="0" parent="1">
          <mxGeometry x="320" y="115" width="1060" height="870" as="geometry" />
        </mxCell>
        <mxCell id="Z-5io42Y-3vGJiled2K--1" value="" style="ellipse;whiteSpace=wrap;html=1;aspect=fixed;strokeWidth=5;fillColor=#ffcc99;strokeColor=#36393d;" vertex="1" parent="Z-5io42Y-3vGJiled2K--111">
          <mxGeometry x="74.3859649122807" y="160.48543689320388" width="67.57281553398057" height="67.57281553398057" as="geometry" />
        </mxCell>
        <mxCell id="Z-5io42Y-3vGJiled2K--2" value="" style="ellipse;whiteSpace=wrap;html=1;aspect=fixed;strokeWidth=5;fillColor=#ffcc99;strokeColor=#36393d;" vertex="1" parent="Z-5io42Y-3vGJiled2K--111">
          <mxGeometry x="74.3859649122807" y="320.97087378640776" width="67.57281553398057" height="67.57281553398057" as="geometry" />
        </mxCell>
        <mxCell id="Z-5io42Y-3vGJiled2K--3" value="" style="ellipse;whiteSpace=wrap;html=1;aspect=fixed;strokeWidth=5;fillColor=#ffcc99;strokeColor=#36393d;" vertex="1" parent="Z-5io42Y-3vGJiled2K--111">
          <mxGeometry x="74.3859649122807" y="481.45631067961165" width="67.57281553398057" height="67.57281553398057" as="geometry" />
        </mxCell>
        <mxCell id="Z-5io42Y-3vGJiled2K--4" value="" style="ellipse;whiteSpace=wrap;html=1;aspect=fixed;strokeWidth=5;fillColor=#ffcc99;strokeColor=#36393d;" vertex="1" parent="Z-5io42Y-3vGJiled2K--111">
          <mxGeometry x="74.3859649122807" y="641.9417475728155" width="67.57281553398057" height="67.57281553398057" as="geometry" />
        </mxCell>
        <mxCell id="Z-5io42Y-3vGJiled2K--5" value="" style="ellipse;whiteSpace=wrap;html=1;aspect=fixed;strokeWidth=5;fillColor=#cce5ff;strokeColor=#36393d;" vertex="1" parent="Z-5io42Y-3vGJiled2K--111">
          <mxGeometry x="371.9298245614035" y="160.48543689320388" width="67.57281553398057" height="67.57281553398057" as="geometry" />
        </mxCell>
        <mxCell id="Z-5io42Y-3vGJiled2K--6" value="" style="ellipse;whiteSpace=wrap;html=1;aspect=fixed;strokeWidth=5;fillColor=#cce5ff;strokeColor=#36393d;" vertex="1" parent="Z-5io42Y-3vGJiled2K--111">
          <mxGeometry x="371.9298245614035" y="320.97087378640776" width="67.57281553398057" height="67.57281553398057" as="geometry" />
        </mxCell>
        <mxCell id="Z-5io42Y-3vGJiled2K--7" value="" style="ellipse;whiteSpace=wrap;html=1;aspect=fixed;strokeWidth=5;fillColor=#cce5ff;strokeColor=#36393d;" vertex="1" parent="Z-5io42Y-3vGJiled2K--111">
          <mxGeometry x="371.9298245614035" y="481.45631067961165" width="67.57281553398057" height="67.57281553398057" as="geometry" />
        </mxCell>
        <mxCell id="Z-5io42Y-3vGJiled2K--8" value="" style="ellipse;whiteSpace=wrap;html=1;aspect=fixed;strokeWidth=5;fillColor=#cce5ff;strokeColor=#36393d;" vertex="1" parent="Z-5io42Y-3vGJiled2K--111">
          <mxGeometry x="371.9298245614035" y="641.9417475728155" width="67.57281553398057" height="67.57281553398057" as="geometry" />
        </mxCell>
        <mxCell id="Z-5io42Y-3vGJiled2K--13" value="" style="ellipse;whiteSpace=wrap;html=1;aspect=fixed;strokeWidth=5;fillColor=#ffff88;strokeColor=#36393d;" vertex="1" parent="Z-5io42Y-3vGJiled2K--111">
          <mxGeometry x="669.4736842105264" y="160.48543689320388" width="67.57281553398057" height="67.57281553398057" as="geometry" />
        </mxCell>
        <mxCell id="Z-5io42Y-3vGJiled2K--14" value="" style="ellipse;whiteSpace=wrap;html=1;aspect=fixed;strokeWidth=5;fillColor=#ffff88;strokeColor=#36393d;" vertex="1" parent="Z-5io42Y-3vGJiled2K--111">
          <mxGeometry x="669.4736842105264" y="320.97087378640776" width="67.57281553398057" height="67.57281553398057" as="geometry" />
        </mxCell>
        <mxCell id="Z-5io42Y-3vGJiled2K--15" value="" style="ellipse;whiteSpace=wrap;html=1;aspect=fixed;strokeWidth=5;fillColor=#ffff88;strokeColor=#36393d;" vertex="1" parent="Z-5io42Y-3vGJiled2K--111">
          <mxGeometry x="669.4736842105264" y="481.45631067961165" width="67.57281553398057" height="67.57281553398057" as="geometry" />
        </mxCell>
        <mxCell id="Z-5io42Y-3vGJiled2K--16" value="" style="ellipse;whiteSpace=wrap;html=1;aspect=fixed;strokeWidth=5;fillColor=#ffff88;strokeColor=#36393d;" vertex="1" parent="Z-5io42Y-3vGJiled2K--111">
          <mxGeometry x="669.4736842105264" y="641.9417475728155" width="67.57281553398057" height="67.57281553398057" as="geometry" />
        </mxCell>
        <mxCell id="Z-5io42Y-3vGJiled2K--17" value="" style="ellipse;whiteSpace=wrap;html=1;aspect=fixed;strokeWidth=5;fillColor=#cdeb8b;strokeColor=#36393d;" vertex="1" parent="Z-5io42Y-3vGJiled2K--111">
          <mxGeometry x="892.6315789473684" y="396.9902912621359" width="67.57281553398057" height="67.57281553398057" as="geometry" />
        </mxCell>
        <mxCell id="Z-5io42Y-3vGJiled2K--23" value="" style="ellipse;whiteSpace=wrap;html=1;aspect=fixed;strokeWidth=5;fillColor=#ffff88;strokeColor=#36393d;" vertex="1" parent="Z-5io42Y-3vGJiled2K--111">
          <mxGeometry x="669.4736842105264" width="67.57281553398057" height="67.57281553398057" as="geometry" />
        </mxCell>
        <mxCell id="Z-5io42Y-3vGJiled2K--24" value="" style="ellipse;whiteSpace=wrap;html=1;aspect=fixed;strokeWidth=5;fillColor=#cce5ff;strokeColor=#36393d;" vertex="1" parent="Z-5io42Y-3vGJiled2K--111">
          <mxGeometry x="371.9298245614035" width="67.57281553398057" height="67.57281553398057" as="geometry" />
        </mxCell>
        <mxCell id="Z-5io42Y-3vGJiled2K--25" value="" style="ellipse;whiteSpace=wrap;html=1;aspect=fixed;strokeWidth=5;fillColor=#cce5ff;strokeColor=#36393d;" vertex="1" parent="Z-5io42Y-3vGJiled2K--111">
          <mxGeometry x="371.9298245614035" y="802.4271844660194" width="67.57281553398057" height="67.57281553398057" as="geometry" />
        </mxCell>
        <mxCell id="Z-5io42Y-3vGJiled2K--27" value="" style="ellipse;whiteSpace=wrap;html=1;aspect=fixed;strokeWidth=5;fillColor=#ffff88;strokeColor=#36393d;" vertex="1" parent="Z-5io42Y-3vGJiled2K--111">
          <mxGeometry x="669.4736842105264" y="793.9805825242718" width="67.57281553398057" height="67.57281553398057" as="geometry" />
        </mxCell>
        <mxCell id="Z-5io42Y-3vGJiled2K--35" value="" style="endArrow=classic;html=1;rounded=0;entryX=0.005;entryY=0.709;entryDx=0;entryDy=0;entryPerimeter=0;exitX=1;exitY=0.5;exitDx=0;exitDy=0;strokeWidth=3;" edge="1" parent="Z-5io42Y-3vGJiled2K--111" source="Z-5io42Y-3vGJiled2K--2" target="Z-5io42Y-3vGJiled2K--24">
          <mxGeometry width="50" height="50" relative="1" as="geometry">
            <mxPoint x="204.56140350877192" y="244.9514563106796" as="sourcePoint" />
            <mxPoint x="427.719298245614" y="101.35922330097087" as="targetPoint" />
          </mxGeometry>
        </mxCell>
        <mxCell id="Z-5io42Y-3vGJiled2K--36" value="" style="endArrow=classic;html=1;rounded=0;entryX=0.024;entryY=0.68;entryDx=0;entryDy=0;entryPerimeter=0;exitX=1;exitY=0.5;exitDx=0;exitDy=0;strokeWidth=3;" edge="1" parent="Z-5io42Y-3vGJiled2K--111" source="Z-5io42Y-3vGJiled2K--2" target="Z-5io42Y-3vGJiled2K--7">
          <mxGeometry width="50" height="50" relative="1" as="geometry">
            <mxPoint x="140.40350877192984" y="354.75728155339806" as="sourcePoint" />
            <mxPoint x="446.3157894736842" y="337.8640776699029" as="targetPoint" />
          </mxGeometry>
        </mxCell>
        <mxCell id="Z-5io42Y-3vGJiled2K--37" value="" style="endArrow=classic;html=1;rounded=0;entryX=-0.014;entryY=0.641;entryDx=0;entryDy=0;entryPerimeter=0;exitX=1;exitY=0.5;exitDx=0;exitDy=0;strokeWidth=3;" edge="1" parent="Z-5io42Y-3vGJiled2K--111" source="Z-5io42Y-3vGJiled2K--2" target="Z-5io42Y-3vGJiled2K--5">
          <mxGeometry width="50" height="50" relative="1" as="geometry">
            <mxPoint x="223.1578947368421" y="261.84466019417476" as="sourcePoint" />
            <mxPoint x="446.3157894736842" y="118.25242718446601" as="targetPoint" />
          </mxGeometry>
        </mxCell>
        <mxCell id="Z-5io42Y-3vGJiled2K--38" value="" style="endArrow=classic;html=1;rounded=0;entryX=0;entryY=0.5;entryDx=0;entryDy=0;exitX=1;exitY=0.5;exitDx=0;exitDy=0;strokeWidth=3;" edge="1" parent="Z-5io42Y-3vGJiled2K--111" source="Z-5io42Y-3vGJiled2K--2" target="Z-5io42Y-3vGJiled2K--6">
          <mxGeometry width="50" height="50" relative="1" as="geometry">
            <mxPoint x="232.4561403508772" y="270.2912621359223" as="sourcePoint" />
            <mxPoint x="455.6140350877193" y="126.69902912621359" as="targetPoint" />
          </mxGeometry>
        </mxCell>
        <mxCell id="Z-5io42Y-3vGJiled2K--39" value="" style="endArrow=classic;html=1;rounded=0;entryX=0;entryY=0.5;entryDx=0;entryDy=0;exitX=1;exitY=0.5;exitDx=0;exitDy=0;strokeWidth=3;" edge="1" parent="Z-5io42Y-3vGJiled2K--111" source="Z-5io42Y-3vGJiled2K--2" target="Z-5io42Y-3vGJiled2K--25">
          <mxGeometry width="50" height="50" relative="1" as="geometry">
            <mxPoint x="146.91228070175438" y="456.1165048543689" as="sourcePoint" />
            <mxPoint x="371.9298245614035" y="628.4271844660194" as="targetPoint" />
          </mxGeometry>
        </mxCell>
        <mxCell id="Z-5io42Y-3vGJiled2K--40" value="" style="endArrow=classic;html=1;rounded=0;entryX=0;entryY=0.5;entryDx=0;entryDy=0;exitX=1;exitY=0.5;exitDx=0;exitDy=0;strokeWidth=3;" edge="1" parent="Z-5io42Y-3vGJiled2K--111" source="Z-5io42Y-3vGJiled2K--2" target="Z-5io42Y-3vGJiled2K--8">
          <mxGeometry width="50" height="50" relative="1" as="geometry">
            <mxPoint x="158.0701754385965" y="413.88349514563106" as="sourcePoint" />
            <mxPoint x="383.0877192982456" y="586.1941747572815" as="targetPoint" />
          </mxGeometry>
        </mxCell>
        <mxCell id="Z-5io42Y-3vGJiled2K--41" value="" style="endArrow=classic;html=1;rounded=0;entryX=0;entryY=0.5;entryDx=0;entryDy=0;exitX=1;exitY=0.5;exitDx=0;exitDy=0;strokeWidth=3;" edge="1" parent="Z-5io42Y-3vGJiled2K--111" target="Z-5io42Y-3vGJiled2K--25">
          <mxGeometry width="50" height="50" relative="1" as="geometry">
            <mxPoint x="148.7719298245614" y="196.80582524271844" as="sourcePoint" />
            <mxPoint x="371.9298245614035" y="-109.80582524271844" as="targetPoint" />
          </mxGeometry>
        </mxCell>
        <mxCell id="Z-5io42Y-3vGJiled2K--42" value="" style="endArrow=classic;html=1;rounded=0;entryX=0.024;entryY=0.68;entryDx=0;entryDy=0;entryPerimeter=0;exitX=1;exitY=0.5;exitDx=0;exitDy=0;strokeWidth=3;" edge="1" parent="Z-5io42Y-3vGJiled2K--111">
          <mxGeometry width="50" height="50" relative="1" as="geometry">
            <mxPoint x="148.7719298245614" y="196.80582524271844" as="sourcePoint" />
            <mxPoint x="373.7894736842105" y="369.11650485436894" as="targetPoint" />
          </mxGeometry>
        </mxCell>
        <mxCell id="Z-5io42Y-3vGJiled2K--43" value="" style="endArrow=classic;html=1;rounded=0;entryX=-0.014;entryY=0.641;entryDx=0;entryDy=0;entryPerimeter=0;exitX=1;exitY=0.5;exitDx=0;exitDy=0;strokeWidth=3;" edge="1" parent="Z-5io42Y-3vGJiled2K--111">
          <mxGeometry width="50" height="50" relative="1" as="geometry">
            <mxPoint x="148.7719298245614" y="196.80582524271844" as="sourcePoint" />
            <mxPoint x="371" y="45.61165048543689" as="targetPoint" />
          </mxGeometry>
        </mxCell>
        <mxCell id="Z-5io42Y-3vGJiled2K--44" value="" style="endArrow=classic;html=1;rounded=0;entryX=0;entryY=0.5;entryDx=0;entryDy=0;exitX=1;exitY=0.5;exitDx=0;exitDy=0;strokeWidth=3;" edge="1" parent="Z-5io42Y-3vGJiled2K--111">
          <mxGeometry width="50" height="50" relative="1" as="geometry">
            <mxPoint x="148.7719298245614" y="196.80582524271844" as="sourcePoint" />
            <mxPoint x="371.9298245614035" y="196.80582524271844" as="targetPoint" />
          </mxGeometry>
        </mxCell>
        <mxCell id="Z-5io42Y-3vGJiled2K--45" value="" style="endArrow=classic;html=1;rounded=0;entryX=0;entryY=0.5;entryDx=0;entryDy=0;exitX=1;exitY=0.5;exitDx=0;exitDy=0;strokeWidth=3;" edge="1" parent="Z-5io42Y-3vGJiled2K--111">
          <mxGeometry width="50" height="50" relative="1" as="geometry">
            <mxPoint x="148.7719298245614" y="196.80582524271844" as="sourcePoint" />
            <mxPoint x="371.9298245614035" y="678.2621359223301" as="targetPoint" />
          </mxGeometry>
        </mxCell>
        <mxCell id="Z-5io42Y-3vGJiled2K--46" value="" style="endArrow=classic;html=1;rounded=0;entryX=0;entryY=0.5;entryDx=0;entryDy=0;exitX=1;exitY=0.5;exitDx=0;exitDy=0;strokeWidth=3;" edge="1" parent="Z-5io42Y-3vGJiled2K--111">
          <mxGeometry width="50" height="50" relative="1" as="geometry">
            <mxPoint x="148.7719298245614" y="196.80582524271844" as="sourcePoint" />
            <mxPoint x="371.9298245614035" y="517.7766990291262" as="targetPoint" />
          </mxGeometry>
        </mxCell>
        <mxCell id="Z-5io42Y-3vGJiled2K--47" value="" style="endArrow=classic;html=1;rounded=0;entryX=0.005;entryY=0.709;entryDx=0;entryDy=0;entryPerimeter=0;exitX=1;exitY=0.5;exitDx=0;exitDy=0;strokeWidth=3;" edge="1" parent="Z-5io42Y-3vGJiled2K--111">
          <mxGeometry width="50" height="50" relative="1" as="geometry">
            <mxPoint x="148.7719298245614" y="672.3495145631067" as="sourcePoint" />
            <mxPoint x="371.9298245614035" y="365.7378640776699" as="targetPoint" />
          </mxGeometry>
        </mxCell>
        <mxCell id="Z-5io42Y-3vGJiled2K--48" value="" style="endArrow=classic;html=1;rounded=0;entryX=0.024;entryY=0.68;entryDx=0;entryDy=0;entryPerimeter=0;exitX=1;exitY=0.5;exitDx=0;exitDy=0;strokeWidth=3;" edge="1" parent="Z-5io42Y-3vGJiled2K--111">
          <mxGeometry width="50" height="50" relative="1" as="geometry">
            <mxPoint x="148.7719298245614" y="672.3495145631067" as="sourcePoint" />
            <mxPoint x="373.7894736842105" y="844.6601941747573" as="targetPoint" />
          </mxGeometry>
        </mxCell>
        <mxCell id="Z-5io42Y-3vGJiled2K--49" value="" style="endArrow=classic;html=1;rounded=0;entryX=-0.014;entryY=0.641;entryDx=0;entryDy=0;entryPerimeter=0;exitX=1;exitY=0.5;exitDx=0;exitDy=0;strokeWidth=3;" edge="1" parent="Z-5io42Y-3vGJiled2K--111">
          <mxGeometry width="50" height="50" relative="1" as="geometry">
            <mxPoint x="148.7719298245614" y="672.3495145631067" as="sourcePoint" />
            <mxPoint x="371" y="521.1553398058252" as="targetPoint" />
          </mxGeometry>
        </mxCell>
        <mxCell id="Z-5io42Y-3vGJiled2K--50" value="" style="endArrow=classic;html=1;rounded=0;entryX=0;entryY=0.5;entryDx=0;entryDy=0;exitX=1;exitY=0.5;exitDx=0;exitDy=0;strokeWidth=3;" edge="1" parent="Z-5io42Y-3vGJiled2K--111">
          <mxGeometry width="50" height="50" relative="1" as="geometry">
            <mxPoint x="148.7719298245614" y="672.3495145631067" as="sourcePoint" />
            <mxPoint x="371.9298245614035" y="672.3495145631067" as="targetPoint" />
          </mxGeometry>
        </mxCell>
        <mxCell id="Z-5io42Y-3vGJiled2K--51" value="" style="endArrow=classic;html=1;rounded=0;entryX=-0.015;entryY=0.669;entryDx=0;entryDy=0;exitX=1;exitY=0.5;exitDx=0;exitDy=0;entryPerimeter=0;strokeWidth=3;" edge="1" parent="Z-5io42Y-3vGJiled2K--111" target="Z-5io42Y-3vGJiled2K--24">
          <mxGeometry width="50" height="50" relative="1" as="geometry">
            <mxPoint x="148.7719298245614" y="672.3495145631067" as="sourcePoint" />
            <mxPoint x="371.9298245614035" y="1153.8058252427184" as="targetPoint" />
          </mxGeometry>
        </mxCell>
        <mxCell id="Z-5io42Y-3vGJiled2K--52" value="" style="endArrow=classic;html=1;rounded=0;exitX=1;exitY=0.5;exitDx=0;exitDy=0;entryX=0;entryY=0.5;entryDx=0;entryDy=0;strokeWidth=3;" edge="1" parent="Z-5io42Y-3vGJiled2K--111" target="Z-5io42Y-3vGJiled2K--5">
          <mxGeometry width="50" height="50" relative="1" as="geometry">
            <mxPoint x="148.7719298245614" y="672.3495145631067" as="sourcePoint" />
            <mxPoint x="371.9298245614035" y="33.78640776699029" as="targetPoint" />
          </mxGeometry>
        </mxCell>
        <mxCell id="Z-5io42Y-3vGJiled2K--53" value="" style="endArrow=classic;html=1;rounded=0;entryX=0;entryY=0.5;entryDx=0;entryDy=0;exitX=1;exitY=0.5;exitDx=0;exitDy=0;strokeWidth=3;" edge="1" parent="Z-5io42Y-3vGJiled2K--111" target="Z-5io42Y-3vGJiled2K--5">
          <mxGeometry width="50" height="50" relative="1" as="geometry">
            <mxPoint x="148.7719298245614" y="514.3980582524272" as="sourcePoint" />
            <mxPoint x="371.9298245614035" y="1153.8058252427184" as="targetPoint" />
          </mxGeometry>
        </mxCell>
        <mxCell id="Z-5io42Y-3vGJiled2K--54" value="" style="endArrow=classic;html=1;rounded=0;entryX=0.024;entryY=0.68;entryDx=0;entryDy=0;entryPerimeter=0;exitX=1;exitY=0.5;exitDx=0;exitDy=0;strokeWidth=3;" edge="1" parent="Z-5io42Y-3vGJiled2K--111">
          <mxGeometry width="50" height="50" relative="1" as="geometry">
            <mxPoint x="148.7719298245614" y="514.3980582524272" as="sourcePoint" />
            <mxPoint x="373.7894736842105" y="686.7087378640776" as="targetPoint" />
          </mxGeometry>
        </mxCell>
        <mxCell id="Z-5io42Y-3vGJiled2K--55" value="" style="endArrow=classic;html=1;rounded=0;entryX=-0.014;entryY=0.641;entryDx=0;entryDy=0;entryPerimeter=0;exitX=1;exitY=0.5;exitDx=0;exitDy=0;strokeWidth=3;" edge="1" parent="Z-5io42Y-3vGJiled2K--111">
          <mxGeometry width="50" height="50" relative="1" as="geometry">
            <mxPoint x="148.7719298245614" y="514.3980582524272" as="sourcePoint" />
            <mxPoint x="371" y="363.2038834951456" as="targetPoint" />
          </mxGeometry>
        </mxCell>
        <mxCell id="Z-5io42Y-3vGJiled2K--56" value="" style="endArrow=classic;html=1;rounded=0;entryX=0;entryY=0.5;entryDx=0;entryDy=0;exitX=1;exitY=0.5;exitDx=0;exitDy=0;strokeWidth=3;" edge="1" parent="Z-5io42Y-3vGJiled2K--111">
          <mxGeometry width="50" height="50" relative="1" as="geometry">
            <mxPoint x="148.7719298245614" y="514.3980582524272" as="sourcePoint" />
            <mxPoint x="371.9298245614035" y="514.3980582524272" as="targetPoint" />
          </mxGeometry>
        </mxCell>
        <mxCell id="Z-5io42Y-3vGJiled2K--57" value="" style="endArrow=classic;html=1;rounded=0;entryX=0;entryY=0.5;entryDx=0;entryDy=0;exitX=1;exitY=0.5;exitDx=0;exitDy=0;strokeWidth=3;" edge="1" parent="Z-5io42Y-3vGJiled2K--111" target="Z-5io42Y-3vGJiled2K--5">
          <mxGeometry width="50" height="50" relative="1" as="geometry">
            <mxPoint x="148.7719298245614" y="514.3980582524272" as="sourcePoint" />
            <mxPoint x="371.9298245614035" y="995.8543689320388" as="targetPoint" />
          </mxGeometry>
        </mxCell>
        <mxCell id="Z-5io42Y-3vGJiled2K--58" value="" style="endArrow=classic;html=1;rounded=0;entryX=0;entryY=0.5;entryDx=0;entryDy=0;exitX=1;exitY=0.5;exitDx=0;exitDy=0;strokeWidth=3;" edge="1" parent="Z-5io42Y-3vGJiled2K--111">
          <mxGeometry width="50" height="50" relative="1" as="geometry">
            <mxPoint x="148.7719298245614" y="514.3980582524272" as="sourcePoint" />
            <mxPoint x="371.9298245614035" y="835.3689320388349" as="targetPoint" />
          </mxGeometry>
        </mxCell>
        <mxCell id="Z-5io42Y-3vGJiled2K--59" value="" style="endArrow=classic;html=1;rounded=0;entryX=-0.029;entryY=0.6;entryDx=0;entryDy=0;exitX=1;exitY=0.5;exitDx=0;exitDy=0;entryPerimeter=0;strokeWidth=3;" edge="1" parent="Z-5io42Y-3vGJiled2K--111" source="Z-5io42Y-3vGJiled2K--3" target="Z-5io42Y-3vGJiled2K--24">
          <mxGeometry width="50" height="50" relative="1" as="geometry">
            <mxPoint x="158.0701754385965" y="522.8446601941747" as="sourcePoint" />
            <mxPoint x="381.2280701754386" y="202.71844660194174" as="targetPoint" />
          </mxGeometry>
        </mxCell>
        <mxCell id="Z-5io42Y-3vGJiled2K--60" value="" style="endArrow=classic;html=1;rounded=0;entryX=0.005;entryY=0.709;entryDx=0;entryDy=0;entryPerimeter=0;exitX=1;exitY=0.5;exitDx=0;exitDy=0;strokeWidth=3;" edge="1" parent="Z-5io42Y-3vGJiled2K--111">
          <mxGeometry width="50" height="50" relative="1" as="geometry">
            <mxPoint x="446.3157894736842" y="348" as="sourcePoint" />
            <mxPoint x="669.4736842105264" y="41.3883495145631" as="targetPoint" />
          </mxGeometry>
        </mxCell>
        <mxCell id="Z-5io42Y-3vGJiled2K--61" value="" style="endArrow=classic;html=1;rounded=0;entryX=0.024;entryY=0.68;entryDx=0;entryDy=0;entryPerimeter=0;exitX=1;exitY=0.5;exitDx=0;exitDy=0;strokeWidth=3;" edge="1" parent="Z-5io42Y-3vGJiled2K--111">
          <mxGeometry width="50" height="50" relative="1" as="geometry">
            <mxPoint x="446.3157894736842" y="348" as="sourcePoint" />
            <mxPoint x="671.3333333333334" y="520.3106796116505" as="targetPoint" />
          </mxGeometry>
        </mxCell>
        <mxCell id="Z-5io42Y-3vGJiled2K--62" value="" style="endArrow=classic;html=1;rounded=0;entryX=-0.014;entryY=0.641;entryDx=0;entryDy=0;entryPerimeter=0;exitX=1;exitY=0.5;exitDx=0;exitDy=0;strokeWidth=3;" edge="1" parent="Z-5io42Y-3vGJiled2K--111">
          <mxGeometry width="50" height="50" relative="1" as="geometry">
            <mxPoint x="446.3157894736842" y="348" as="sourcePoint" />
            <mxPoint x="668.5438596491229" y="196.80582524271844" as="targetPoint" />
          </mxGeometry>
        </mxCell>
        <mxCell id="Z-5io42Y-3vGJiled2K--63" value="" style="endArrow=classic;html=1;rounded=0;entryX=0;entryY=0.5;entryDx=0;entryDy=0;exitX=1;exitY=0.5;exitDx=0;exitDy=0;strokeWidth=3;" edge="1" parent="Z-5io42Y-3vGJiled2K--111">
          <mxGeometry width="50" height="50" relative="1" as="geometry">
            <mxPoint x="446.3157894736842" y="348" as="sourcePoint" />
            <mxPoint x="669.4736842105264" y="348" as="targetPoint" />
          </mxGeometry>
        </mxCell>
        <mxCell id="Z-5io42Y-3vGJiled2K--64" value="" style="endArrow=classic;html=1;rounded=0;entryX=0;entryY=0.5;entryDx=0;entryDy=0;exitX=1;exitY=0.5;exitDx=0;exitDy=0;strokeWidth=3;" edge="1" parent="Z-5io42Y-3vGJiled2K--111">
          <mxGeometry width="50" height="50" relative="1" as="geometry">
            <mxPoint x="446.3157894736842" y="348" as="sourcePoint" />
            <mxPoint x="669.4736842105264" y="829.4563106796116" as="targetPoint" />
          </mxGeometry>
        </mxCell>
        <mxCell id="Z-5io42Y-3vGJiled2K--65" value="" style="endArrow=classic;html=1;rounded=0;entryX=0;entryY=0.5;entryDx=0;entryDy=0;exitX=1;exitY=0.5;exitDx=0;exitDy=0;strokeWidth=3;" edge="1" parent="Z-5io42Y-3vGJiled2K--111">
          <mxGeometry width="50" height="50" relative="1" as="geometry">
            <mxPoint x="446.3157894736842" y="348" as="sourcePoint" />
            <mxPoint x="669.4736842105264" y="668.9708737864078" as="targetPoint" />
          </mxGeometry>
        </mxCell>
        <mxCell id="Z-5io42Y-3vGJiled2K--66" value="" style="endArrow=classic;html=1;rounded=0;entryX=0;entryY=0.5;entryDx=0;entryDy=0;exitX=1;exitY=0.5;exitDx=0;exitDy=0;strokeWidth=3;" edge="1" parent="Z-5io42Y-3vGJiled2K--111">
          <mxGeometry width="50" height="50" relative="1" as="geometry">
            <mxPoint x="446.3157894736842" y="190.04854368932038" as="sourcePoint" />
            <mxPoint x="669.4736842105264" y="829.4563106796116" as="targetPoint" />
          </mxGeometry>
        </mxCell>
        <mxCell id="Z-5io42Y-3vGJiled2K--67" value="" style="endArrow=classic;html=1;rounded=0;entryX=0.024;entryY=0.68;entryDx=0;entryDy=0;entryPerimeter=0;exitX=1;exitY=0.5;exitDx=0;exitDy=0;strokeWidth=3;" edge="1" parent="Z-5io42Y-3vGJiled2K--111">
          <mxGeometry width="50" height="50" relative="1" as="geometry">
            <mxPoint x="446.3157894736842" y="190.04854368932038" as="sourcePoint" />
            <mxPoint x="671.3333333333334" y="362.3592233009709" as="targetPoint" />
          </mxGeometry>
        </mxCell>
        <mxCell id="Z-5io42Y-3vGJiled2K--68" value="" style="endArrow=classic;html=1;rounded=0;entryX=-0.014;entryY=0.641;entryDx=0;entryDy=0;entryPerimeter=0;exitX=1;exitY=0.5;exitDx=0;exitDy=0;strokeWidth=3;" edge="1" parent="Z-5io42Y-3vGJiled2K--111">
          <mxGeometry width="50" height="50" relative="1" as="geometry">
            <mxPoint x="446.3157894736842" y="190.04854368932038" as="sourcePoint" />
            <mxPoint x="668.5438596491229" y="38.85436893203883" as="targetPoint" />
          </mxGeometry>
        </mxCell>
        <mxCell id="Z-5io42Y-3vGJiled2K--69" value="" style="endArrow=classic;html=1;rounded=0;entryX=0;entryY=0.5;entryDx=0;entryDy=0;exitX=1;exitY=0.5;exitDx=0;exitDy=0;strokeWidth=3;" edge="1" parent="Z-5io42Y-3vGJiled2K--111">
          <mxGeometry width="50" height="50" relative="1" as="geometry">
            <mxPoint x="446.3157894736842" y="190.04854368932038" as="sourcePoint" />
            <mxPoint x="669.4736842105264" y="190.04854368932038" as="targetPoint" />
          </mxGeometry>
        </mxCell>
        <mxCell id="Z-5io42Y-3vGJiled2K--70" value="" style="endArrow=classic;html=1;rounded=0;entryX=0;entryY=0.5;entryDx=0;entryDy=0;exitX=1;exitY=0.5;exitDx=0;exitDy=0;strokeWidth=3;" edge="1" parent="Z-5io42Y-3vGJiled2K--111">
          <mxGeometry width="50" height="50" relative="1" as="geometry">
            <mxPoint x="446.3157894736842" y="190.04854368932038" as="sourcePoint" />
            <mxPoint x="669.4736842105264" y="671.504854368932" as="targetPoint" />
          </mxGeometry>
        </mxCell>
        <mxCell id="Z-5io42Y-3vGJiled2K--71" value="" style="endArrow=classic;html=1;rounded=0;entryX=0;entryY=0.5;entryDx=0;entryDy=0;exitX=1;exitY=0.5;exitDx=0;exitDy=0;strokeWidth=3;" edge="1" parent="Z-5io42Y-3vGJiled2K--111">
          <mxGeometry width="50" height="50" relative="1" as="geometry">
            <mxPoint x="446.3157894736842" y="190.04854368932038" as="sourcePoint" />
            <mxPoint x="669.4736842105264" y="511.0194174757281" as="targetPoint" />
          </mxGeometry>
        </mxCell>
        <mxCell id="Z-5io42Y-3vGJiled2K--72" value="" style="endArrow=classic;html=1;rounded=0;entryX=0.005;entryY=0.709;entryDx=0;entryDy=0;entryPerimeter=0;exitX=1;exitY=0.5;exitDx=0;exitDy=0;strokeWidth=3;" edge="1" parent="Z-5io42Y-3vGJiled2K--111">
          <mxGeometry width="50" height="50" relative="1" as="geometry">
            <mxPoint x="446.3157894736842" y="665.5922330097087" as="sourcePoint" />
            <mxPoint x="669.4736842105264" y="358.9805825242718" as="targetPoint" />
          </mxGeometry>
        </mxCell>
        <mxCell id="Z-5io42Y-3vGJiled2K--73" value="" style="endArrow=classic;html=1;rounded=0;entryX=0.024;entryY=0.68;entryDx=0;entryDy=0;entryPerimeter=0;exitX=1;exitY=0.5;exitDx=0;exitDy=0;strokeWidth=3;" edge="1" parent="Z-5io42Y-3vGJiled2K--111">
          <mxGeometry width="50" height="50" relative="1" as="geometry">
            <mxPoint x="446.3157894736842" y="665.5922330097087" as="sourcePoint" />
            <mxPoint x="671.3333333333334" y="837.9029126213592" as="targetPoint" />
          </mxGeometry>
        </mxCell>
        <mxCell id="Z-5io42Y-3vGJiled2K--74" value="" style="endArrow=classic;html=1;rounded=0;entryX=-0.014;entryY=0.641;entryDx=0;entryDy=0;entryPerimeter=0;exitX=1;exitY=0.5;exitDx=0;exitDy=0;strokeWidth=3;" edge="1" parent="Z-5io42Y-3vGJiled2K--111">
          <mxGeometry width="50" height="50" relative="1" as="geometry">
            <mxPoint x="446.3157894736842" y="665.5922330097087" as="sourcePoint" />
            <mxPoint x="668.5438596491229" y="514.3980582524272" as="targetPoint" />
          </mxGeometry>
        </mxCell>
        <mxCell id="Z-5io42Y-3vGJiled2K--75" value="" style="endArrow=classic;html=1;rounded=0;entryX=0;entryY=0.5;entryDx=0;entryDy=0;exitX=1;exitY=0.5;exitDx=0;exitDy=0;strokeWidth=3;" edge="1" parent="Z-5io42Y-3vGJiled2K--111">
          <mxGeometry width="50" height="50" relative="1" as="geometry">
            <mxPoint x="446.3157894736842" y="665.5922330097087" as="sourcePoint" />
            <mxPoint x="669.4736842105264" y="665.5922330097087" as="targetPoint" />
          </mxGeometry>
        </mxCell>
        <mxCell id="Z-5io42Y-3vGJiled2K--76" value="" style="endArrow=classic;html=1;rounded=0;entryX=-0.015;entryY=0.669;entryDx=0;entryDy=0;exitX=1;exitY=0.5;exitDx=0;exitDy=0;entryPerimeter=0;strokeWidth=3;" edge="1" parent="Z-5io42Y-3vGJiled2K--111">
          <mxGeometry width="50" height="50" relative="1" as="geometry">
            <mxPoint x="446.3157894736842" y="665.5922330097087" as="sourcePoint" />
            <mxPoint x="668.5438596491229" y="38.85436893203883" as="targetPoint" />
          </mxGeometry>
        </mxCell>
        <mxCell id="Z-5io42Y-3vGJiled2K--77" value="" style="endArrow=classic;html=1;rounded=0;exitX=1;exitY=0.5;exitDx=0;exitDy=0;entryX=0;entryY=0.5;entryDx=0;entryDy=0;strokeWidth=3;" edge="1" parent="Z-5io42Y-3vGJiled2K--111">
          <mxGeometry width="50" height="50" relative="1" as="geometry">
            <mxPoint x="446.3157894736842" y="665.5922330097087" as="sourcePoint" />
            <mxPoint x="669.4736842105264" y="187.51456310679612" as="targetPoint" />
          </mxGeometry>
        </mxCell>
        <mxCell id="Z-5io42Y-3vGJiled2K--78" value="" style="endArrow=classic;html=1;rounded=0;entryX=0;entryY=0.5;entryDx=0;entryDy=0;exitX=1;exitY=0.5;exitDx=0;exitDy=0;strokeWidth=3;" edge="1" parent="Z-5io42Y-3vGJiled2K--111">
          <mxGeometry width="50" height="50" relative="1" as="geometry">
            <mxPoint x="446.3157894736842" y="507.6407766990291" as="sourcePoint" />
            <mxPoint x="669.4736842105264" y="187.51456310679612" as="targetPoint" />
          </mxGeometry>
        </mxCell>
        <mxCell id="Z-5io42Y-3vGJiled2K--79" value="" style="endArrow=classic;html=1;rounded=0;entryX=0.024;entryY=0.68;entryDx=0;entryDy=0;entryPerimeter=0;exitX=1;exitY=0.5;exitDx=0;exitDy=0;strokeWidth=3;" edge="1" parent="Z-5io42Y-3vGJiled2K--111">
          <mxGeometry width="50" height="50" relative="1" as="geometry">
            <mxPoint x="446.3157894736842" y="507.6407766990291" as="sourcePoint" />
            <mxPoint x="671.3333333333334" y="679.9514563106795" as="targetPoint" />
          </mxGeometry>
        </mxCell>
        <mxCell id="Z-5io42Y-3vGJiled2K--80" value="" style="endArrow=classic;html=1;rounded=0;entryX=-0.014;entryY=0.641;entryDx=0;entryDy=0;entryPerimeter=0;exitX=1;exitY=0.5;exitDx=0;exitDy=0;strokeWidth=3;" edge="1" parent="Z-5io42Y-3vGJiled2K--111">
          <mxGeometry width="50" height="50" relative="1" as="geometry">
            <mxPoint x="446.3157894736842" y="507.6407766990291" as="sourcePoint" />
            <mxPoint x="668.5438596491229" y="356.44660194174753" as="targetPoint" />
          </mxGeometry>
        </mxCell>
        <mxCell id="Z-5io42Y-3vGJiled2K--81" value="" style="endArrow=classic;html=1;rounded=0;entryX=0;entryY=0.5;entryDx=0;entryDy=0;exitX=1;exitY=0.5;exitDx=0;exitDy=0;strokeWidth=3;" edge="1" parent="Z-5io42Y-3vGJiled2K--111">
          <mxGeometry width="50" height="50" relative="1" as="geometry">
            <mxPoint x="446.3157894736842" y="507.6407766990291" as="sourcePoint" />
            <mxPoint x="669.4736842105264" y="507.6407766990291" as="targetPoint" />
          </mxGeometry>
        </mxCell>
        <mxCell id="Z-5io42Y-3vGJiled2K--82" value="" style="endArrow=classic;html=1;rounded=0;entryX=0;entryY=0.5;entryDx=0;entryDy=0;exitX=1;exitY=0.5;exitDx=0;exitDy=0;strokeWidth=3;" edge="1" parent="Z-5io42Y-3vGJiled2K--111">
          <mxGeometry width="50" height="50" relative="1" as="geometry">
            <mxPoint x="446.3157894736842" y="507.6407766990291" as="sourcePoint" />
            <mxPoint x="669.4736842105264" y="187.51456310679612" as="targetPoint" />
          </mxGeometry>
        </mxCell>
        <mxCell id="Z-5io42Y-3vGJiled2K--83" value="" style="endArrow=classic;html=1;rounded=0;entryX=0;entryY=0.5;entryDx=0;entryDy=0;exitX=1;exitY=0.5;exitDx=0;exitDy=0;strokeWidth=3;" edge="1" parent="Z-5io42Y-3vGJiled2K--111">
          <mxGeometry width="50" height="50" relative="1" as="geometry">
            <mxPoint x="446.3157894736842" y="507.6407766990291" as="sourcePoint" />
            <mxPoint x="669.4736842105264" y="828.6116504854368" as="targetPoint" />
          </mxGeometry>
        </mxCell>
        <mxCell id="Z-5io42Y-3vGJiled2K--84" value="" style="endArrow=classic;html=1;rounded=0;entryX=-0.029;entryY=0.6;entryDx=0;entryDy=0;exitX=1;exitY=0.5;exitDx=0;exitDy=0;entryPerimeter=0;strokeWidth=3;" edge="1" parent="Z-5io42Y-3vGJiled2K--111">
          <mxGeometry width="50" height="50" relative="1" as="geometry">
            <mxPoint x="446.3157894736842" y="508.4854368932039" as="sourcePoint" />
            <mxPoint x="667.6140350877193" y="33.78640776699029" as="targetPoint" />
          </mxGeometry>
        </mxCell>
        <mxCell id="Z-5io42Y-3vGJiled2K--85" value="" style="endArrow=classic;html=1;rounded=0;entryX=0;entryY=0.5;entryDx=0;entryDy=0;exitX=1;exitY=0.5;exitDx=0;exitDy=0;strokeWidth=3;" edge="1" parent="Z-5io42Y-3vGJiled2K--111" source="Z-5io42Y-3vGJiled2K--24" target="Z-5io42Y-3vGJiled2K--27">
          <mxGeometry width="50" height="50" relative="1" as="geometry">
            <mxPoint x="474.2105263157895" y="100.51456310679612" as="sourcePoint" />
            <mxPoint x="696.438596491228" y="-50.679611650485434" as="targetPoint" />
          </mxGeometry>
        </mxCell>
        <mxCell id="Z-5io42Y-3vGJiled2K--86" value="" style="endArrow=classic;html=1;rounded=0;exitX=1;exitY=0.5;exitDx=0;exitDy=0;strokeWidth=3;" edge="1" parent="Z-5io42Y-3vGJiled2K--111" source="Z-5io42Y-3vGJiled2K--24">
          <mxGeometry width="50" height="50" relative="1" as="geometry">
            <mxPoint x="483.50877192982455" y="108.96116504854368" as="sourcePoint" />
            <mxPoint x="669.4736842105264" y="675.7281553398058" as="targetPoint" />
          </mxGeometry>
        </mxCell>
        <mxCell id="Z-5io42Y-3vGJiled2K--87" value="" style="endArrow=classic;html=1;rounded=0;entryX=0;entryY=0.5;entryDx=0;entryDy=0;exitX=1;exitY=0.5;exitDx=0;exitDy=0;strokeWidth=3;" edge="1" parent="Z-5io42Y-3vGJiled2K--111" source="Z-5io42Y-3vGJiled2K--24" target="Z-5io42Y-3vGJiled2K--15">
          <mxGeometry width="50" height="50" relative="1" as="geometry">
            <mxPoint x="492.8070175438597" y="117.40776699029125" as="sourcePoint" />
            <mxPoint x="715.0350877192983" y="-33.78640776699029" as="targetPoint" />
          </mxGeometry>
        </mxCell>
        <mxCell id="Z-5io42Y-3vGJiled2K--88" value="" style="endArrow=classic;html=1;rounded=0;entryX=0;entryY=0.5;entryDx=0;entryDy=0;exitX=1;exitY=0.5;exitDx=0;exitDy=0;strokeWidth=3;" edge="1" parent="Z-5io42Y-3vGJiled2K--111" source="Z-5io42Y-3vGJiled2K--24" target="Z-5io42Y-3vGJiled2K--14">
          <mxGeometry width="50" height="50" relative="1" as="geometry">
            <mxPoint x="502.10526315789474" y="125.85436893203882" as="sourcePoint" />
            <mxPoint x="724.3333333333334" y="-25.339805825242717" as="targetPoint" />
          </mxGeometry>
        </mxCell>
        <mxCell id="Z-5io42Y-3vGJiled2K--89" value="" style="endArrow=classic;html=1;rounded=0;entryX=0;entryY=0.5;entryDx=0;entryDy=0;exitX=1;exitY=0.5;exitDx=0;exitDy=0;strokeWidth=3;" edge="1" parent="Z-5io42Y-3vGJiled2K--111" source="Z-5io42Y-3vGJiled2K--24" target="Z-5io42Y-3vGJiled2K--13">
          <mxGeometry width="50" height="50" relative="1" as="geometry">
            <mxPoint x="511.4035087719298" y="134.3009708737864" as="sourcePoint" />
            <mxPoint x="733.6315789473684" y="-16.893203883495143" as="targetPoint" />
          </mxGeometry>
        </mxCell>
        <mxCell id="Z-5io42Y-3vGJiled2K--90" value="" style="endArrow=classic;html=1;rounded=0;exitX=1;exitY=0.5;exitDx=0;exitDy=0;strokeWidth=3;" edge="1" parent="Z-5io42Y-3vGJiled2K--111" source="Z-5io42Y-3vGJiled2K--24" target="Z-5io42Y-3vGJiled2K--23">
          <mxGeometry width="50" height="50" relative="1" as="geometry">
            <mxPoint x="520.7017543859649" y="142.74757281553397" as="sourcePoint" />
            <mxPoint x="742.9298245614035" y="-8.446601941747572" as="targetPoint" />
          </mxGeometry>
        </mxCell>
        <mxCell id="Z-5io42Y-3vGJiled2K--91" value="" style="endArrow=classic;html=1;rounded=0;entryX=-0.015;entryY=0.669;entryDx=0;entryDy=0;exitX=1;exitY=0.5;exitDx=0;exitDy=0;entryPerimeter=0;strokeWidth=3;" edge="1" parent="Z-5io42Y-3vGJiled2K--111">
          <mxGeometry width="50" height="50" relative="1" as="geometry">
            <mxPoint x="446.3157894736842" y="837.9029126213592" as="sourcePoint" />
            <mxPoint x="668.5438596491229" y="211.16504854368932" as="targetPoint" />
          </mxGeometry>
        </mxCell>
        <mxCell id="Z-5io42Y-3vGJiled2K--92" value="" style="endArrow=classic;html=1;rounded=0;exitX=1;exitY=0.5;exitDx=0;exitDy=0;entryX=0;entryY=0.5;entryDx=0;entryDy=0;strokeWidth=3;" edge="1" parent="Z-5io42Y-3vGJiled2K--111">
          <mxGeometry width="50" height="50" relative="1" as="geometry">
            <mxPoint x="446.3157894736842" y="837.9029126213592" as="sourcePoint" />
            <mxPoint x="669.4736842105264" y="359.8252427184466" as="targetPoint" />
          </mxGeometry>
        </mxCell>
        <mxCell id="Z-5io42Y-3vGJiled2K--93" value="" style="endArrow=classic;html=1;rounded=0;entryX=0.005;entryY=0.709;entryDx=0;entryDy=0;entryPerimeter=0;exitX=1;exitY=0.5;exitDx=0;exitDy=0;strokeWidth=3;" edge="1" parent="Z-5io42Y-3vGJiled2K--111">
          <mxGeometry width="50" height="50" relative="1" as="geometry">
            <mxPoint x="446.3157894736842" y="837.9029126213592" as="sourcePoint" />
            <mxPoint x="669.4736842105264" y="531.2912621359224" as="targetPoint" />
          </mxGeometry>
        </mxCell>
        <mxCell id="Z-5io42Y-3vGJiled2K--94" value="" style="endArrow=classic;html=1;rounded=0;entryX=-0.014;entryY=0.641;entryDx=0;entryDy=0;entryPerimeter=0;exitX=1;exitY=0.5;exitDx=0;exitDy=0;strokeWidth=3;" edge="1" parent="Z-5io42Y-3vGJiled2K--111">
          <mxGeometry width="50" height="50" relative="1" as="geometry">
            <mxPoint x="446.3157894736842" y="837.9029126213592" as="sourcePoint" />
            <mxPoint x="668.5438596491229" y="686.7087378640776" as="targetPoint" />
          </mxGeometry>
        </mxCell>
        <mxCell id="Z-5io42Y-3vGJiled2K--95" value="" style="endArrow=classic;html=1;rounded=0;entryX=0;entryY=0.5;entryDx=0;entryDy=0;exitX=1;exitY=0.5;exitDx=0;exitDy=0;strokeWidth=3;" edge="1" parent="Z-5io42Y-3vGJiled2K--111">
          <mxGeometry width="50" height="50" relative="1" as="geometry">
            <mxPoint x="446.3157894736842" y="837.9029126213592" as="sourcePoint" />
            <mxPoint x="669.4736842105264" y="837.9029126213592" as="targetPoint" />
          </mxGeometry>
        </mxCell>
        <mxCell id="Z-5io42Y-3vGJiled2K--96" value="" style="endArrow=classic;html=1;rounded=0;entryX=0;entryY=0.5;entryDx=0;entryDy=0;exitX=1;exitY=0.5;exitDx=0;exitDy=0;strokeWidth=3;" edge="1" parent="Z-5io42Y-3vGJiled2K--111" target="Z-5io42Y-3vGJiled2K--23">
          <mxGeometry width="50" height="50" relative="1" as="geometry">
            <mxPoint x="446.3157894736842" y="837.9029126213592" as="sourcePoint" />
            <mxPoint x="671.3333333333334" y="1010.2135922330096" as="targetPoint" />
          </mxGeometry>
        </mxCell>
        <mxCell id="Z-5io42Y-3vGJiled2K--97" value="" style="endArrow=classic;html=1;rounded=0;exitX=1;exitY=0.5;exitDx=0;exitDy=0;entryX=0;entryY=0.5;entryDx=0;entryDy=0;strokeWidth=3;" edge="1" parent="Z-5io42Y-3vGJiled2K--111" source="Z-5io42Y-3vGJiled2K--13" target="Z-5io42Y-3vGJiled2K--17">
          <mxGeometry width="50" height="50" relative="1" as="geometry">
            <mxPoint x="790.3508771929825" y="25.339805825242717" as="sourcePoint" />
            <mxPoint x="1013.5087719298245" y="25.339805825242717" as="targetPoint" />
          </mxGeometry>
        </mxCell>
        <mxCell id="Z-5io42Y-3vGJiled2K--98" value="" style="endArrow=classic;html=1;rounded=0;exitX=1;exitY=0.5;exitDx=0;exitDy=0;entryX=0;entryY=0.5;entryDx=0;entryDy=0;strokeWidth=3;" edge="1" parent="Z-5io42Y-3vGJiled2K--111" source="Z-5io42Y-3vGJiled2K--23" target="Z-5io42Y-3vGJiled2K--17">
          <mxGeometry width="50" height="50" relative="1" as="geometry">
            <mxPoint x="799.6491228070175" y="33.78640776699029" as="sourcePoint" />
            <mxPoint x="1022.8070175438596" y="33.78640776699029" as="targetPoint" />
          </mxGeometry>
        </mxCell>
        <mxCell id="Z-5io42Y-3vGJiled2K--99" value="" style="endArrow=classic;html=1;rounded=0;exitX=1;exitY=0.5;exitDx=0;exitDy=0;entryX=0;entryY=0.5;entryDx=0;entryDy=0;strokeWidth=3;" edge="1" parent="Z-5io42Y-3vGJiled2K--111" source="Z-5io42Y-3vGJiled2K--16" target="Z-5io42Y-3vGJiled2K--17">
          <mxGeometry width="50" height="50" relative="1" as="geometry">
            <mxPoint x="808.9473684210526" y="42.23300970873786" as="sourcePoint" />
            <mxPoint x="1032.1052631578948" y="42.23300970873786" as="targetPoint" />
          </mxGeometry>
        </mxCell>
        <mxCell id="Z-5io42Y-3vGJiled2K--100" value="" style="endArrow=classic;html=1;rounded=0;exitX=1;exitY=0.5;exitDx=0;exitDy=0;entryX=0;entryY=0.5;entryDx=0;entryDy=0;strokeWidth=3;" edge="1" parent="Z-5io42Y-3vGJiled2K--111" source="Z-5io42Y-3vGJiled2K--15" target="Z-5io42Y-3vGJiled2K--17">
          <mxGeometry width="50" height="50" relative="1" as="geometry">
            <mxPoint x="818.2456140350877" y="50.679611650485434" as="sourcePoint" />
            <mxPoint x="1041.4035087719299" y="50.679611650485434" as="targetPoint" />
          </mxGeometry>
        </mxCell>
        <mxCell id="Z-5io42Y-3vGJiled2K--101" value="" style="endArrow=classic;html=1;rounded=0;exitX=1;exitY=0.5;exitDx=0;exitDy=0;entryX=0;entryY=0.5;entryDx=0;entryDy=0;strokeWidth=3;" edge="1" parent="Z-5io42Y-3vGJiled2K--111" source="Z-5io42Y-3vGJiled2K--14" target="Z-5io42Y-3vGJiled2K--17">
          <mxGeometry width="50" height="50" relative="1" as="geometry">
            <mxPoint x="827.5438596491229" y="59.12621359223301" as="sourcePoint" />
            <mxPoint x="1050.701754385965" y="59.12621359223301" as="targetPoint" />
          </mxGeometry>
        </mxCell>
        <mxCell id="Z-5io42Y-3vGJiled2K--102" value="" style="endArrow=classic;html=1;rounded=0;exitX=1;exitY=0.5;exitDx=0;exitDy=0;entryX=0;entryY=0.5;entryDx=0;entryDy=0;strokeWidth=3;" edge="1" parent="Z-5io42Y-3vGJiled2K--111" source="Z-5io42Y-3vGJiled2K--27" target="Z-5io42Y-3vGJiled2K--17">
          <mxGeometry width="50" height="50" relative="1" as="geometry">
            <mxPoint x="836.8421052631579" y="67.57281553398057" as="sourcePoint" />
            <mxPoint x="901.9298245614035" y="430.7766990291262" as="targetPoint" />
          </mxGeometry>
        </mxCell>
        <mxCell id="Z-5io42Y-3vGJiled2K--103" value="" style="endArrow=classic;html=1;rounded=0;endSize=20;strokeWidth=3;" edge="1" parent="Z-5io42Y-3vGJiled2K--111">
          <mxGeometry width="50" height="50" relative="1" as="geometry">
            <mxPoint y="193.4271844660194" as="sourcePoint" />
            <mxPoint x="74.3859649122807" y="193.33427184466018" as="targetPoint" />
          </mxGeometry>
        </mxCell>
        <mxCell id="Z-5io42Y-3vGJiled2K--104" value="" style="endArrow=classic;html=1;rounded=0;endSize=20;strokeWidth=3;" edge="1" parent="Z-5io42Y-3vGJiled2K--111">
          <mxGeometry width="50" height="50" relative="1" as="geometry">
            <mxPoint y="674.8834951456311" as="sourcePoint" />
            <mxPoint x="74.3859649122807" y="674.7905825242718" as="targetPoint" />
          </mxGeometry>
        </mxCell>
        <mxCell id="Z-5io42Y-3vGJiled2K--105" value="" style="endArrow=classic;html=1;rounded=0;endSize=20;strokeWidth=3;" edge="1" parent="Z-5io42Y-3vGJiled2K--111">
          <mxGeometry width="50" height="50" relative="1" as="geometry">
            <mxPoint y="514.3980582524272" as="sourcePoint" />
            <mxPoint x="74.3859649122807" y="514.305145631068" as="targetPoint" />
          </mxGeometry>
        </mxCell>
        <mxCell id="Z-5io42Y-3vGJiled2K--106" value="" style="endArrow=classic;html=1;rounded=0;endSize=20;strokeWidth=3;" edge="1" parent="Z-5io42Y-3vGJiled2K--111">
          <mxGeometry width="50" height="50" relative="1" as="geometry">
            <mxPoint y="354.75728155339806" as="sourcePoint" />
            <mxPoint x="74.3859649122807" y="353.81970873786406" as="targetPoint" />
          </mxGeometry>
        </mxCell>
        <mxCell id="Z-5io42Y-3vGJiled2K--107" value="" style="endArrow=classic;html=1;rounded=0;exitX=1;exitY=0.5;exitDx=0;exitDy=0;endSize=20;strokeWidth=3;" edge="1" parent="Z-5io42Y-3vGJiled2K--111">
          <mxGeometry width="50" height="50" relative="1" as="geometry">
            <mxPoint x="967.0175438596491" y="429.8391262135922" as="sourcePoint" />
            <mxPoint x="1060" y="429.9320388349514" as="targetPoint" />
          </mxGeometry>
        </mxCell>
        <mxCell id="Z-5io42Y-3vGJiled2K--112" value="Socioeconomic Score" style="text;html=1;align=center;verticalAlign=middle;whiteSpace=wrap;rounded=0;fontSize=24;fontStyle=1" vertex="1" parent="1">
          <mxGeometry x="150" y="280" width="140" height="50" as="geometry" />
        </mxCell>
        <mxCell id="Z-5io42Y-3vGJiled2K--117" value="Study Hours" style="text;html=1;align=center;verticalAlign=middle;whiteSpace=wrap;rounded=0;fontSize=24;fontStyle=1" vertex="1" parent="1">
          <mxGeometry x="150" y="440" width="170" height="50" as="geometry" />
        </mxCell>
        <mxCell id="Z-5io42Y-3vGJiled2K--118" value="Sleep Hours" style="text;html=1;align=center;verticalAlign=middle;whiteSpace=wrap;rounded=0;fontSize=24;fontStyle=1" vertex="1" parent="1">
          <mxGeometry x="150" y="600" width="170" height="50" as="geometry" />
        </mxCell>
        <mxCell id="Z-5io42Y-3vGJiled2K--119" value="Attendance" style="text;html=1;align=center;verticalAlign=middle;whiteSpace=wrap;rounded=0;fontSize=24;fontStyle=1" vertex="1" parent="1">
          <mxGeometry x="150" y="760" width="170" height="50" as="geometry" />
        </mxCell>
        <mxCell id="Z-5io42Y-3vGJiled2K--120" value="Grade" style="text;html=1;align=center;verticalAlign=middle;whiteSpace=wrap;rounded=0;fontSize=24;fontStyle=1" vertex="1" parent="1">
          <mxGeometry x="1380" y="520" width="100" height="50" as="geometry" />
        </mxCell>
      </root>
    </mxGraphModel>
  </diagram>
</mxfile>
